<?xml version="1.0" encoding="utf-8"?>
<!-- Generator: Adobe Illustrator 16.0.0, SVG Export Plug-In . SVG Version: 6.00 Build 0)  -->
<!DOCTYPE svg PUBLIC "-//W3C//DTD SVG 1.1//EN" "http://www.w3.org/Graphics/SVG/1.1/DTD/svg11.dtd">
<svg version="1.1" id="Layer_1" xmlns="http://www.w3.org/2000/svg" xmlns:xlink="http://www.w3.org/1999/xlink" x="0px" y="0px"
	 width="300px" height="300px" viewBox="0 0 300 300" enable-background="new 0 0 300 300" xml:space="preserve">
<g opacity="0.05">
	<g>
		<path fill="#3F4C77" d="M238.174,286.068H61.825v-26.24l70.65-71.018c21.53-21.773,35.72-37.311,42.573-46.609
			c6.85-9.295,11.988-18.35,15.414-27.158c3.424-8.809,5.139-18.287,5.139-28.443c0-14.314-4.346-25.66-13.029-34.041
			c-8.688-8.378-20.736-12.57-36.151-12.57c-11.133,0-21.685,1.836-31.654,5.506c-9.973,3.67-21.074,10.339-33.307,20.002
			L65.312,44.76c24.711-20.553,51.626-30.828,80.742-30.828c25.2,0,44.96,6.453,59.272,19.359
			c14.314,12.908,21.471,30.25,21.471,52.023c0,17.006-4.771,33.828-14.314,50.465c-9.541,16.639-27.404,37.68-53.582,63.125
			l-58.722,57.438v1.467h137.995V286.068z"/>
	</g>
</g>
</svg>
