<?xml version="1.0" encoding="utf-8"?>
<!-- Generator: Adobe Illustrator 16.0.0, SVG Export Plug-In . SVG Version: 6.00 Build 0)  -->
<!DOCTYPE svg PUBLIC "-//W3C//DTD SVG 1.1//EN" "http://www.w3.org/Graphics/SVG/1.1/DTD/svg11.dtd">
<svg version="1.1" id="Layer_1" xmlns="http://www.w3.org/2000/svg" xmlns:xlink="http://www.w3.org/1999/xlink" x="0px" y="0px"
	 width="300px" height="105px" viewBox="0 0 300 105" enable-background="new 0 0 300 105" xml:space="preserve">
<path fill="#FE6700" d="M150,5.5c-62.8,0-115.71,42-131.776,100h263.553C265.709,47.5,212.8,5.5,150,5.5z"/>
<g>
	<path fill="#FFFFFF" d="M129.159,76.161c0,0.447,0.017,0.752-0.303,1.094c-0.32,0.347-0.701,0.518-1.14,0.518h-1.082
		c-1.042,0-1.74-0.479-1.74-1.611V57.682c0-2.224-0.651-3.954-1.951-5.188c-1.302-1.233-3.076-1.85-5.317-1.85
		c-2.684,0-4.776,0.899-6.279,2.7c-1.501,1.8-2.253,4.136-2.253,7.008v15.812c0,0.445,0.019,0.75-0.302,1.094
		c-0.32,0.346-0.703,0.517-1.142,0.517h-1.141c-1.082,0-1.8-0.477-1.8-1.61v-34.32c0-1.132,0.541-1.701,1.622-1.701h1.142
		c0.44,0,0.821,0.173,1.142,0.517c0.32,0.344,0.479,0.738,0.479,1.184v7.463c0.321-0.322,0.702-0.646,1.143-0.969
		c0.079-0.081,0.181-0.123,0.301-0.123c2.082-1.375,4.445-2.062,7.089-2.062c3.244,0,5.926,0.908,8.05,2.729l-0.06-0.061
		c2.363,1.902,3.544,4.694,3.544,8.375V76.161z"/>
	<path fill="#FFFFFF" d="M160.774,62.475c0,4.653-1.321,8.396-3.964,11.227c-2.646,2.831-6.053,4.16-10.578,4.16
		c-4.486,0-8.25-1.368-10.931-4.28c-2.564-2.792-3.846-6.493-3.846-11.106c0-4.571,1.353-8.304,4.055-11.196
		c2.704-2.892,6.257-4.338,10.666-4.338c4.364,0,7.929,1.477,10.694,4.429C159.473,54.16,160.774,57.862,160.774,62.475z
		 M156.389,62.475c0-3.399-0.881-6.099-2.646-8.101c-1.762-2.003-4.305-3.005-7.63-3.005c-3.242,0-5.757,1.001-7.539,3.005
		c-1.784,2.002-2.674,4.701-2.674,8.101c0,3.318,0.89,6.007,2.674,8.071c1.782,2.063,4.295,3.095,7.539,3.095
		c3.284,0,5.848-1.05,7.692-3.155C155.527,68.504,156.389,65.833,156.389,62.475z"/>
	<path fill="#FFFFFF" d="M173.667,51.369c0,0.444-0.15,0.85-0.452,1.213c-0.301,0.364-0.65,0.548-1.05,0.548h-3.186v23.031
		c0,0.404,0.027,0.701-0.271,1.067c-0.301,0.362-0.652,0.544-1.052,0.544h-0.84c-0.442,0-0.812-0.171-1.111-0.518
		c-0.302-0.342-0.629-0.646-0.629-1.094l-0.061-23.031h-3.123c-0.402,0-0.753-0.184-1.051-0.548
		c-0.304-0.363-0.452-0.769-0.452-1.213v-1.031c0-1.133,0.5-1.701,1.503-1.701h3.123v-6.796c0-1.132,0.697-1.643,1.698-1.643h0.961
		c0.401,0,0.75,0.182,1.052,0.547c0.3,0.363,0.253,0.692,0.253,1.096v6.796h3.188c1,0,1.5,0.567,1.5,1.701V51.369L173.667,51.369z"
		/>
	<path fill="#FFFFFF" d="M202.983,62.306c0,4.653-1.322,8.394-3.966,11.228c-2.644,2.83-6.052,4.157-10.575,4.157
		c-4.487,0-8.249-1.369-10.932-4.278c-2.562-2.794-3.844-6.494-3.844-11.106c0-4.573,1.352-8.305,4.054-11.197
		c2.704-2.893,6.257-4.339,10.663-4.339c4.365,0,7.932,1.476,10.693,4.429C201.681,53.99,202.983,57.692,202.983,62.306z
		 M198.597,62.306c0-3.4-0.882-6.101-2.644-8.102c-1.763-2.003-4.305-3.004-7.631-3.004c-3.245,0-5.758,1.001-7.54,3.004
		c-1.783,2.001-2.676,4.701-2.676,8.102c0,3.316,0.893,6.006,2.676,8.068c1.782,2.064,4.295,3.098,7.54,3.098
		c3.283,0,5.848-1.052,7.691-3.156C197.735,68.333,198.597,65.662,198.597,62.306z"/>
	<g>
		<path fill="#FFFFFF" d="M201.721,77.746c-0.404,0-0.805-0.153-1.111-0.46l-9.135-9.134c-0.614-0.613-0.614-1.609,0-2.223
			c0.612-0.613,1.609-0.613,2.223,0l9.133,9.136c0.614,0.615,0.614,1.609,0,2.222C202.523,77.593,202.121,77.746,201.721,77.746z"/>
	</g>
</g>
</svg>
