<?xml version="1.0" encoding="utf-8"?>
<!-- Generator: Adobe Illustrator 16.0.0, SVG Export Plug-In . SVG Version: 6.00 Build 0)  -->
<!DOCTYPE svg PUBLIC "-//W3C//DTD SVG 1.1//EN" "http://www.w3.org/Graphics/SVG/1.1/DTD/svg11.dtd">
<svg version="1.1" id="Layer_1" xmlns="http://www.w3.org/2000/svg" xmlns:xlink="http://www.w3.org/1999/xlink" x="0px" y="0px"
	 width="200px" height="110px" viewBox="0 -1.727 200 110" enable-background="new 0 -1.727 200 110" xml:space="preserve">
<g>
	<g>
		<path fill="#3F4C77" d="M12.22,101.804l-0.243-1.67h-0.077c-0.53,0.681-1.075,1.16-1.636,1.441
			c-0.56,0.281-1.221,0.422-1.984,0.422c-1.035,0-1.841-0.266-2.417-0.795C5.287,100.671,5,99.937,5,98.999
			c0-1.029,0.429-1.828,1.286-2.398c0.856-0.567,2.098-0.868,3.722-0.901l2.009-0.058v-0.698c0-1.004-0.203-1.761-0.61-2.271
			c-0.408-0.513-1.064-0.769-1.971-0.769c-0.978,0-1.99,0.272-3.038,0.815l-0.358-0.836c1.157-0.543,2.304-0.813,3.436-0.813
			c1.158,0,2.023,0.301,2.596,0.901c0.573,0.603,0.859,1.541,0.859,2.814v7.018H12.22L12.22,101.804z M8.338,101.124
			c1.126,0,2.014-0.322,2.665-0.965c0.649-0.645,0.975-1.539,0.975-2.686v-1.037l-1.845,0.076c-1.481,0.072-2.537,0.303-3.168,0.694
			c-0.63,0.392-0.946,1-0.946,1.828c0,0.66,0.202,1.175,0.607,1.537C7.028,100.941,7.6,101.124,8.338,101.124z"/>
		<path fill="#3F4C77" d="M20.208,91.05c0.763,0,1.424,0.14,1.979,0.418c0.557,0.277,1.056,0.752,1.494,1.426h0.058
			c-0.038-0.813-0.058-1.612-0.058-2.396v-3.795h0.951v15.103h-0.63l-0.243-1.611h-0.078c-0.802,1.203-1.953,1.807-3.455,1.807
			c-1.456,0-2.567-0.453-3.338-1.359c-0.77-0.905-1.155-2.227-1.155-3.959c0-1.825,0.383-3.221,1.146-4.186
			C17.644,91.533,18.751,91.05,20.208,91.05z M20.208,91.925c-1.152,0-2.018,0.404-2.597,1.211
			c-0.578,0.812-0.868,1.984-0.868,3.523c0,2.99,1.16,4.484,3.483,4.484c1.19,0,2.064-0.346,2.621-1.039
			c0.556-0.691,0.834-1.834,0.834-3.424v-0.168c0-1.629-0.272-2.801-0.819-3.519C22.314,92.281,21.431,91.925,20.208,91.925z"/>
		<path fill="#3F4C77" d="M32.436,101.998c-1.533,0-2.729-0.473-3.585-1.416c-0.857-0.944-1.286-2.268-1.286-3.971
			c0-1.683,0.414-3.029,1.243-4.041c0.828-1.015,1.944-1.521,3.349-1.521c1.242,0,2.223,0.435,2.94,1.301
			c0.718,0.867,1.077,2.046,1.077,3.533v0.777h-7.6c0.013,1.449,0.351,2.555,1.015,3.318c0.663,0.764,1.612,1.145,2.848,1.145
			c0.603,0,1.131-0.041,1.586-0.125c0.457-0.084,1.034-0.266,1.733-0.543v0.873c-0.596,0.26-1.146,0.436-1.65,0.529
			C33.6,101.951,33.043,101.998,32.436,101.998z M32.153,91.904c-1.016,0-1.83,0.336-2.445,1.006
			c-0.615,0.668-0.975,1.636-1.077,2.896h6.521c0-1.223-0.266-2.18-0.796-2.868C33.827,92.249,33.093,91.904,32.153,91.904z"/>
		<path fill="#3F4C77" d="M41.394,101.804l-4.076-10.549h0.99l2.729,7.172c0.361,0.918,0.634,1.722,0.814,2.406h0.059
			c0.265-0.879,0.536-1.689,0.814-2.426l2.728-7.152h0.988l-4.076,10.549H41.394z"/>
		<path fill="#3F4C77" d="M54.613,101.804l-0.243-1.67h-0.077c-0.531,0.681-1.076,1.16-1.635,1.441
			c-0.561,0.281-1.221,0.422-1.985,0.422c-1.035,0-1.841-0.266-2.416-0.795c-0.576-0.531-0.864-1.266-0.864-2.203
			c0-1.029,0.428-1.828,1.285-2.398c0.858-0.567,2.1-0.868,3.723-0.901l2.01-0.058v-0.698c0-1.004-0.203-1.761-0.611-2.271
			c-0.408-0.513-1.064-0.769-1.97-0.769c-0.978,0-1.99,0.272-3.038,0.815l-0.359-0.836c1.158-0.543,2.305-0.813,3.437-0.813
			c1.157,0,2.022,0.301,2.595,0.901c0.573,0.603,0.859,1.541,0.859,2.814v7.018H54.613L54.613,101.804z M50.73,101.124
			c1.125,0,2.014-0.322,2.664-0.965c0.65-0.645,0.976-1.539,0.976-2.686v-1.037l-1.845,0.076c-1.48,0.072-2.537,0.303-3.168,0.694
			c-0.63,0.392-0.945,1-0.945,1.828c0,0.66,0.202,1.175,0.605,1.537C49.422,100.941,49.993,101.124,50.73,101.124z M51.798,89.759
			c-1.638,0-2.527-0.795-2.669-2.387h0.796c0.091,0.562,0.286,0.967,0.587,1.209s0.735,0.363,1.305,0.363s1.004-0.121,1.306-0.363
			c0.301-0.242,0.5-0.646,0.597-1.209h0.777C54.302,88.964,53.402,89.759,51.798,89.759z"/>
		<path fill="#3F4C77" d="M62.893,91.05c0.445,0,0.924,0.047,1.437,0.138l-0.185,0.922c-0.44-0.109-0.896-0.166-1.369-0.166
			c-0.898,0-1.637,0.383-2.213,1.146c-0.576,0.764-0.863,1.729-0.863,2.895v5.822h-0.961V91.257h0.814l0.098,1.901h0.067
			c0.435-0.776,0.896-1.321,1.388-1.637C61.598,91.206,62.191,91.05,62.893,91.05z"/>
		<path fill="#3F4C77" d="M67.309,91.255v6.832c0,1.062,0.223,1.832,0.668,2.314c0.446,0.482,1.14,0.723,2.078,0.723
			c1.254,0,2.178-0.316,2.771-0.951c0.593-0.633,0.888-1.666,0.888-3.096v-5.822h0.951v10.549H73.85l-0.175-1.457h-0.058
			c-0.686,1.103-1.906,1.65-3.659,1.65c-2.401,0-3.601-1.283-3.601-3.854v-6.889H67.309L67.309,91.255z"/>
		<path fill="#3F4C77" d="M79.157,101.804h-0.962V86.702h0.962V101.804z"/>
		<path fill="#3F4C77" d="M92.113,101.998c-1.532,0-2.729-0.473-3.584-1.416c-0.858-0.944-1.286-2.268-1.286-3.971
			c0-1.683,0.414-3.029,1.243-4.041c0.828-1.015,1.943-1.521,3.349-1.521c1.243,0,2.224,0.435,2.94,1.301
			c0.717,0.867,1.076,2.046,1.076,3.533v0.777h-7.599c0.013,1.449,0.351,2.555,1.015,3.318c0.662,0.764,1.612,1.145,2.848,1.145
			c0.602,0,1.131-0.041,1.587-0.125s1.034-0.266,1.733-0.543v0.873c-0.597,0.26-1.146,0.436-1.65,0.529
			C93.277,101.951,92.723,101.998,92.113,101.998z M91.833,91.904c-1.017,0-1.831,0.336-2.446,1.006
			c-0.615,0.668-0.973,1.636-1.076,2.896h6.521c0-1.223-0.265-2.18-0.796-2.868C93.505,92.249,92.771,91.904,91.833,91.904z"/>
		<path fill="#3F4C77" d="M105.305,99.058c0,0.943-0.359,1.671-1.078,2.179s-1.736,0.762-3.059,0.762
			c-1.41,0-2.529-0.217-3.357-0.649v-1.039c1.062,0.531,2.181,0.797,3.357,0.797c1.043,0,1.834-0.174,2.375-0.52
			c0.539-0.347,0.811-0.808,0.811-1.384c0-0.53-0.215-0.978-0.646-1.34c-0.43-0.36-1.137-0.717-2.121-1.065
			c-1.055-0.384-1.794-0.711-2.223-0.986c-0.426-0.275-0.75-0.586-0.965-0.932c-0.217-0.347-0.325-0.769-0.325-1.267
			c0-0.789,0.331-1.414,0.995-1.875c0.662-0.457,1.59-0.688,2.779-0.688c1.139,0,2.221,0.213,3.24,0.642l-0.357,0.873
			c-1.035-0.429-1.996-0.642-2.883-0.642c-0.859,0-1.543,0.144-2.048,0.428c-0.505,0.285-0.757,0.681-0.757,1.185
			c0,0.55,0.195,0.99,0.587,1.318c0.392,0.329,1.155,0.698,2.294,1.106c0.951,0.344,1.645,0.652,2.078,0.928
			c0.434,0.276,0.758,0.586,0.975,0.937S105.305,98.585,105.305,99.058z"/>
		<path fill="#3F4C77" d="M110.807,101.144c0.607,0,1.139-0.053,1.592-0.155v0.776c-0.467,0.154-1.004,0.232-1.611,0.232
			c-0.932,0-1.619-0.248-2.062-0.746c-0.443-0.5-0.664-1.281-0.664-2.35v-6.812h-1.562v-0.563l1.562-0.437l0.484-2.389h0.496v2.553
			h3.094v0.836h-3.094v6.676c0,0.812,0.143,1.408,0.426,1.795C109.752,100.949,110.197,101.144,110.807,101.144z"/>
		<path fill="#3F4C77" d="M118.939,101.998c-1.533,0-2.73-0.473-3.588-1.416c-0.855-0.944-1.285-2.268-1.285-3.971
			c0-1.683,0.414-3.029,1.242-4.041c0.828-1.015,1.943-1.521,3.35-1.521c1.242,0,2.223,0.435,2.939,1.301
			c0.719,0.867,1.076,2.046,1.076,3.533v0.777h-7.598c0.014,1.449,0.352,2.555,1.014,3.318s1.613,1.145,2.85,1.145
			c0.6,0,1.131-0.041,1.586-0.125c0.457-0.084,1.033-0.266,1.732-0.543v0.873c-0.596,0.26-1.146,0.436-1.648,0.529
			C120.104,101.951,119.547,101.998,118.939,101.998z M118.656,91.904c-1.014,0-1.83,0.336-2.445,1.006
			c-0.613,0.668-0.973,1.636-1.076,2.896h6.521c0-1.223-0.266-2.18-0.797-2.868C120.33,92.249,119.596,91.904,118.656,91.904z"/>
		<path fill="#3F4C77" d="M137.154,101.804l-0.242-1.67h-0.078c-0.529,0.681-1.076,1.16-1.635,1.441s-1.221,0.422-1.984,0.422
			c-1.035,0-1.84-0.266-2.416-0.795c-0.574-0.531-0.863-1.266-0.863-2.203c0-1.029,0.428-1.828,1.285-2.398
			c0.857-0.569,2.1-0.868,3.723-0.901l2.01-0.058v-0.698c0-1.004-0.203-1.761-0.611-2.271c-0.406-0.513-1.062-0.769-1.971-0.769
			c-0.977,0-1.99,0.272-3.037,0.815l-0.357-0.836c1.156-0.543,2.305-0.813,3.436-0.813c1.156,0,2.021,0.301,2.594,0.901
			c0.574,0.603,0.861,1.541,0.861,2.814v7.018H137.154L137.154,101.804z M133.273,101.124c1.125,0,2.014-0.322,2.664-0.965
			c0.648-0.645,0.975-1.539,0.975-2.686v-1.037l-1.844,0.076c-1.48,0.072-2.537,0.303-3.17,0.694c-0.629,0.392-0.945,1-0.945,1.828
			c0,0.66,0.201,1.175,0.607,1.537C131.965,100.941,132.535,101.124,133.273,101.124z"/>
		<path fill="#3F4C77" d="M148.637,101.804v-6.842c0-1.061-0.225-1.832-0.67-2.315c-0.445-0.48-1.139-0.722-2.076-0.722
			c-1.262,0-2.186,0.318-2.771,0.955s-0.879,1.672-0.879,3.103v5.821h-0.959V91.255h0.814l0.184,1.445h0.059
			c0.686-1.1,1.904-1.65,3.66-1.65c2.393,0,3.59,1.285,3.59,3.854v6.899H148.637z"/>
		<path fill="#3F4C77" d="M161.729,96.513c0,1.724-0.416,3.066-1.252,4.035c-0.834,0.965-1.986,1.451-3.455,1.451
			c-0.926,0-1.74-0.225-2.445-0.67s-1.244-1.088-1.619-1.922c-0.377-0.834-0.564-1.799-0.564-2.893c0-1.721,0.418-3.062,1.252-4.023
			s1.98-1.441,3.436-1.441c1.449,0,2.588,0.488,3.412,1.461C161.316,93.486,161.729,94.82,161.729,96.513z M153.402,96.513
			c0,1.451,0.318,2.582,0.955,3.394s1.539,1.219,2.703,1.219c1.166,0,2.064-0.405,2.703-1.219s0.955-1.942,0.955-3.394
			c0-1.455-0.322-2.584-0.965-3.387c-0.645-0.801-1.549-1.203-2.715-1.203c-1.164,0-2.061,0.4-2.691,1.199
			S153.402,95.052,153.402,96.513z"/>
		<path fill="#3F4C77" d="M172.006,101.804v-6.842c0-1.061-0.223-1.832-0.668-2.315c-0.447-0.48-1.139-0.722-2.078-0.722
			c-1.262,0-2.184,0.318-2.77,0.955c-0.588,0.637-0.879,1.672-0.879,3.103v5.821h-0.961V91.255h0.814l0.186,1.445h0.057
			c0.688-1.1,1.906-1.65,3.66-1.65c2.393,0,3.592,1.285,3.592,3.854v6.899H172.006z"/>
		<path fill="#3F4C77" d="M176.238,88.324c0-0.621,0.203-0.933,0.611-0.933c0.199,0,0.357,0.08,0.471,0.242s0.17,0.392,0.17,0.689
			c0,0.291-0.057,0.52-0.17,0.689c-0.113,0.168-0.271,0.252-0.471,0.252C176.441,89.265,176.238,88.953,176.238,88.324z
			 M177.336,101.804h-0.963V91.255h0.963V101.804z"/>
		<path fill="#3F4C77" d="M194.047,101.804v-6.92c0-1.026-0.199-1.778-0.6-2.252c-0.402-0.473-1.018-0.707-1.846-0.707
			c-1.08,0-1.879,0.297-2.396,0.894c-0.518,0.596-0.775,1.528-0.775,2.805v6.183h-0.98v-7.211c0-1.779-0.814-2.668-2.445-2.668
			c-1.107,0-1.912,0.319-2.416,0.965c-0.506,0.645-0.758,1.674-0.758,3.092v5.822h-0.961V91.257h0.795l0.205,1.444h0.057
			c0.293-0.522,0.707-0.93,1.242-1.219c0.539-0.287,1.129-0.433,1.777-0.433c1.664,0,2.729,0.625,3.203,1.873h0.039
			c0.344-0.602,0.805-1.062,1.383-1.387c0.58-0.324,1.238-0.486,1.977-0.486c1.152,0,2.016,0.31,2.592,0.922
			c0.574,0.615,0.861,1.593,0.861,2.933v6.899H194.047L194.047,101.804z"/>
	</g>
	<g>
		<path fill="#3F4C77" d="M53.238,73.07c0,0.849,0.033,1.433-0.576,2.082c-0.609,0.655-1.334,0.981-2.171,0.981h-2.058
			c-1.98,0-3.311-0.91-3.311-3.063V37.911c0-4.232-1.239-7.521-3.713-9.871c-2.478-2.347-5.851-3.521-10.116-3.521
			c-5.106,0-9.086,1.715-11.944,5.139c-2.857,3.425-4.286,7.869-4.286,13.333v30.079c0,0.85,0.035,1.432-0.573,2.084
			c-0.61,0.654-1.334,0.98-2.171,0.98h-2.173c-2.057,0-3.425-0.908-3.425-3.064V7.779c0-2.156,1.029-3.233,3.087-3.233h2.171
			c0.837,0,1.561,0.328,2.171,0.98c0.61,0.655,0.913,1.404,0.913,2.253v14.198c0.61-0.613,1.333-1.229,2.173-1.847
			c0.15-0.154,0.343-0.229,0.57-0.229c3.962-2.617,8.458-3.926,13.486-3.926c6.173,0,11.274,1.73,15.314,5.194l-0.113-0.116
			c4.496,3.619,6.744,8.93,6.744,15.935V73.07L53.238,73.07z"/>
		<path fill="#3F4C77" d="M113.383,47.031c0,8.853-2.516,15.972-7.545,21.356c-5.029,5.39-11.51,7.914-20.12,7.914
			c-8.534,0-15.692-2.604-20.796-8.145c-4.877-5.311-7.314-12.354-7.314-21.127c0-8.695,2.572-15.795,7.713-21.3
			c5.145-5.502,11.904-8.255,20.289-8.255c8.304,0,15.086,2.812,20.344,8.428C110.904,31.216,113.383,38.259,113.383,47.031z
			 M105.037,47.031c0-6.465-1.678-11.603-5.028-15.412c-3.354-3.81-8.192-5.715-14.515-5.715c-6.172,0-10.954,1.905-14.344,5.715
			c-3.391,3.81-5.084,8.946-5.084,15.412c0,6.313,1.693,11.429,5.084,15.354c3.39,3.926,8.172,5.889,14.344,5.889
			c6.246,0,11.123-2.001,14.63-6.002C103.398,58.501,105.037,53.421,105.037,47.031z"/>
		<path fill="#3F4C77" d="M137.906,25.905c0,0.847-0.285,1.616-0.855,2.309c-0.57,0.693-1.238,1.041-2,1.041h-6.057v43.816
			c0,0.77,0.053,1.334-0.52,2.027c-0.572,0.69-1.24,1.037-2,1.037h-1.602c-0.84,0-1.543-0.326-2.113-0.98
			c-0.57-0.652-1.195-1.234-1.195-2.084l-0.113-43.816h-5.943c-0.764,0-1.43-0.348-2-1.041c-0.572-0.691-0.857-1.461-0.857-2.309
			v-1.963c0-2.153,0.953-3.233,2.857-3.233h5.943V7.78c0-2.156,1.324-3.124,3.23-3.124h1.826c0.762,0,1.43,0.346,2,1.038
			c0.572,0.692,0.484,1.316,0.484,2.086v12.93h6.059c1.904,0,2.855,1.079,2.855,3.232V25.905L137.906,25.905z"/>
		<path fill="#FE6700" d="M193.684,46.707c0,8.851-2.516,15.97-7.545,21.357c-5.027,5.389-11.51,7.914-20.119,7.914
			c-8.533,0-15.691-2.604-20.795-8.146c-4.877-5.311-7.316-12.354-7.316-21.126c0-8.696,2.572-15.797,7.715-21.301
			c5.145-5.501,11.904-8.254,20.289-8.254c8.303,0,15.084,2.81,20.342,8.427C191.205,30.89,193.684,37.935,193.684,46.707z
			 M185.338,46.707c0-6.466-1.674-11.604-5.029-15.413c-3.354-3.81-8.189-5.715-14.514-5.715c-6.172,0-10.955,1.905-14.342,5.715
			c-3.391,3.809-5.088,8.946-5.088,15.413c0,6.312,1.697,11.427,5.088,15.353c3.387,3.927,8.172,5.89,14.342,5.89
			c6.246,0,11.123-2,14.631-6.002C183.699,58.175,185.338,53.097,185.338,46.707z"/>
		<g>
			<g>
				<path fill="#FE6700" d="M191.09,76.083c-0.766,0-1.531-0.291-2.113-0.875L171.6,57.832c-1.168-1.166-1.168-3.059,0-4.226
					c1.166-1.167,3.062-1.167,4.229,0l17.375,17.376c1.168,1.166,1.168,3.062,0,4.228C192.619,75.792,191.854,76.083,191.09,76.083z
					"/>
			</g>
		</g>
	</g>
</g>
</svg>
