<?xml version="1.0" encoding="utf-8"?>
<!-- Generator: Adobe Illustrator 16.0.0, SVG Export Plug-In . SVG Version: 6.00 Build 0)  -->
<!DOCTYPE svg PUBLIC "-//W3C//DTD SVG 1.1//EN" "http://www.w3.org/Graphics/SVG/1.1/DTD/svg11.dtd">
<svg version="1.1" id="Layer_1" xmlns="http://www.w3.org/2000/svg" xmlns:xlink="http://www.w3.org/1999/xlink" x="0px" y="0px"
	 width="958.48px" height="160.672px" viewBox="0 0 958.48 160.672" enable-background="new 0 0 958.48 160.672"
	 xml:space="preserve">
<g opacity="0.4">
	<path fill="#3D3D3D" d="M269,87.429c0,2.701-1.027,4.779-3.08,6.23c-2.055,1.453-4.969,2.18-8.744,2.18
		c-4.035,0-7.236-0.619-9.604-1.859v-2.971c3.033,1.518,6.234,2.275,9.604,2.275c2.979,0,5.242-0.494,6.787-1.484
		s2.316-2.309,2.316-3.955c0-1.518-0.615-2.795-1.846-3.83c-1.23-1.037-3.252-2.055-6.064-3.055
		c-3.016-1.092-5.135-2.029-6.357-2.816c-1.221-0.787-2.141-1.676-2.762-2.666c-0.619-0.988-0.93-2.197-0.93-3.621
		c0-2.258,0.949-4.043,2.846-5.357s4.547-1.971,7.953-1.971c3.256,0,6.346,0.609,9.271,1.832l-1.027,2.498
		c-2.961-1.221-5.709-1.832-8.244-1.832c-2.461,0-4.414,0.406-5.857,1.221s-2.166,1.943-2.166,3.387c0,1.572,0.561,2.832,1.68,3.775
		s3.309,1.998,6.564,3.164c2.721,0.98,4.701,1.865,5.941,2.65c1.24,0.787,2.17,1.68,2.789,2.68
		C268.691,84.901,269,86.077,269,87.429z"/>
	<path fill="#3D3D3D" d="M300.895,95.284l-6.605-20.18c-0.426-1.369-0.973-3.377-1.639-6.023h-0.166l-0.584,2.053l-1.248,4.025
		l-6.717,20.125h-2.721l-8.633-30.174h2.941l4.83,17.488c1.129,4.33,1.869,7.514,2.221,9.549h0.166
		c1.092-4.33,1.889-7.207,2.389-8.633l6.217-18.404h2.498l5.912,18.348c1.334,4.35,2.146,7.227,2.443,8.633h0.166
		c0.148-1.201,0.889-4.422,2.221-9.658l4.609-17.322h2.775l-8.189,30.174H300.895z"/>
	<path fill="#3D3D3D" d="M317.494,56.728c0-1.775,0.582-2.664,1.748-2.664c0.574,0,1.023,0.23,1.348,0.693
		c0.322,0.463,0.484,1.119,0.484,1.971c0,0.834-0.162,1.49-0.484,1.971c-0.324,0.482-0.773,0.723-1.348,0.723
		C318.076,59.421,317.494,58.522,317.494,56.728z M320.631,95.284h-2.748V65.11h2.748V95.284z"/>
	<path fill="#3D3D3D" d="M343.641,95.839c-4.645,0-8.031-1.738-10.158-5.219h-0.195l0.084,2.332
		c0.074,1.369,0.111,2.867,0.111,4.496v11.492h-2.748V65.11h2.332l0.527,4.303h0.166c2.072-3.256,5.385-4.885,9.938-4.885
		c4.07,0,7.176,1.336,9.312,4.01c2.137,2.676,3.207,6.566,3.207,11.674c0,4.959-1.125,8.803-3.373,11.533
		C350.596,94.474,347.527,95.839,343.641,95.839z M343.586,93.396c3.09,0,5.482-1.146,7.176-3.441s2.539-5.506,2.539-9.633
		c0-8.863-3.201-13.295-9.604-13.295c-3.516,0-6.098,0.967-7.744,2.9c-1.648,1.934-2.471,5.084-2.471,9.451v0.889
		c0,4.719,0.791,8.088,2.373,10.104C337.438,92.388,340.014,93.396,343.586,93.396z"/>
	<path fill="#3D3D3D" d="M376.756,95.839c-4.385,0-7.805-1.352-10.256-4.053s-3.678-6.486-3.678-11.354
		c0-4.811,1.184-8.664,3.553-11.561s5.561-4.344,9.576-4.344c3.553,0,6.357,1.24,8.412,3.719c2.053,2.48,3.08,5.848,3.08,10.104
		v2.221h-21.734c0.037,4.146,1.004,7.311,2.9,9.494s4.613,3.275,8.146,3.275c1.723,0,3.234-0.121,4.539-0.361
		s2.957-0.758,4.955-1.555v2.498c-1.703,0.74-3.275,1.246-4.719,1.514S378.496,95.839,376.756,95.839z M375.951,66.97
		c-2.904,0-5.236,0.959-6.994,2.873c-1.758,1.916-2.785,4.678-3.082,8.287h18.654c0-3.498-0.76-6.232-2.277-8.203
		S378.635,66.97,375.951,66.97z"/>
	<path fill="#3D3D3D" d="M403.877,60.392c1.148-1.238,2.363-2.684,3.65-4.33c1.285-1.646,2.309-3.09,3.066-4.33h2.721
		c1.258,2.221,3.498,5.107,6.717,8.66v0.445h-1.941c-2.26-1.869-4.303-3.785-6.135-5.746c-2,2.109-4.045,4.023-6.135,5.746h-1.943
		V60.392z M413.287,95.284h-2.748V65.11h2.748V95.284z"/>
	<path fill="#3D3D3D" d="M444.432,95.284v-19.57c0-3.035-0.639-5.24-1.916-6.619s-3.258-2.068-5.939-2.068
		c-3.609,0-6.252,0.912-7.926,2.734c-1.676,1.822-2.512,4.779-2.512,8.869v16.654h-2.748V65.11h2.332l0.527,4.137h0.166
		c1.961-3.146,5.449-4.719,10.465-4.719c6.846,0,10.27,3.674,10.27,11.02v19.736H444.432z"/>
	<path fill="#3D3D3D" d="M464.889,93.396c1.738,0,3.256-0.146,4.551-0.443v2.221c-1.332,0.443-2.867,0.666-4.607,0.666
		c-2.664,0-4.631-0.713-5.898-2.137c-1.268-1.426-1.9-3.664-1.9-6.719V67.497h-4.469v-1.609l4.469-1.248l1.387-6.83h1.416v7.301
		h8.855v2.387h-8.855v19.098c0,2.314,0.406,4.025,1.221,5.137C461.871,92.841,463.148,93.396,464.889,93.396z"/>
	<path fill="#3D3D3D" d="M487.844,64.528c1.277,0,2.646,0.129,4.107,0.389l-0.527,2.637c-1.258-0.314-2.562-0.473-3.912-0.473
		c-2.572,0-4.684,1.092-6.33,3.275s-2.471,4.941-2.471,8.273v16.654h-2.748V65.11h2.332l0.277,5.441h0.195
		c1.238-2.221,2.562-3.779,3.969-4.678C484.143,64.978,485.846,64.528,487.844,64.528z"/>
	<path fill="#3D3D3D" d="M510.271,95.839c-4.385,0-7.805-1.352-10.256-4.053s-3.678-6.486-3.678-11.354
		c0-4.811,1.184-8.664,3.553-11.561s5.561-4.344,9.576-4.344c3.553,0,6.357,1.24,8.412,3.719c2.053,2.48,3.08,5.848,3.08,10.104
		v2.221h-21.734c0.037,4.146,1.004,7.311,2.9,9.494s4.613,3.275,8.146,3.275c1.723,0,3.234-0.121,4.539-0.361
		s2.957-0.758,4.955-1.555v2.498c-1.703,0.74-3.275,1.246-4.719,1.514S512.012,95.839,510.271,95.839z M509.467,66.97
		c-2.904,0-5.236,0.959-6.994,2.873c-1.758,1.916-2.785,4.678-3.082,8.287h18.654c0-3.498-0.76-6.232-2.277-8.203
		S512.15,66.97,509.467,66.97z"/>
	<path fill="#3D3D3D" d="M556.24,95.839c-4.387,0-7.805-1.352-10.256-4.053c-2.453-2.701-3.68-6.486-3.68-11.354
		c0-4.811,1.186-8.664,3.555-11.561c2.367-2.896,5.561-4.344,9.576-4.344c3.553,0,6.355,1.24,8.41,3.719
		c2.055,2.48,3.082,5.848,3.082,10.104v2.221h-21.734c0.035,4.146,1.002,7.311,2.9,9.494c1.896,2.184,4.611,3.275,8.146,3.275
		c1.721,0,3.234-0.121,4.539-0.361s2.955-0.758,4.953-1.555v2.498c-1.701,0.74-3.275,1.246-4.719,1.514
		S557.979,95.839,556.24,95.839z M555.436,66.97c-2.906,0-5.238,0.959-6.996,2.873c-1.758,1.916-2.785,4.678-3.08,8.287h18.652
		c0-3.498-0.758-6.232-2.275-8.203S558.117,66.97,555.436,66.97z"/>
	<path fill="#3D3D3D" d="M587.301,95.839c-4.312,0-7.689-1.359-10.133-4.08c-2.441-2.721-3.664-6.514-3.664-11.381
		c0-4.996,1.268-8.887,3.805-11.672c2.535-2.785,6.004-4.178,10.408-4.178c2.609,0,5.107,0.453,7.494,1.359l-0.748,2.443
		c-2.609-0.869-4.877-1.305-6.801-1.305c-3.701,0-6.506,1.143-8.412,3.428s-2.857,5.574-2.857,9.867c0,4.072,0.951,7.26,2.857,9.564
		c1.906,2.303,4.57,3.455,7.994,3.455c2.74,0,5.283-0.49,7.635-1.471v2.553C592.953,95.366,590.428,95.839,587.301,95.839z"/>
	<path fill="#3D3D3D" d="M614.143,64.528c1.277,0,2.646,0.129,4.107,0.389l-0.527,2.637c-1.258-0.314-2.562-0.473-3.912-0.473
		c-2.572,0-4.684,1.092-6.33,3.275s-2.471,4.941-2.471,8.273v16.654h-2.748V65.11h2.332l0.277,5.441h0.195
		c1.238-2.221,2.562-3.779,3.969-4.678C610.441,64.978,612.145,64.528,614.143,64.528z"/>
	<path fill="#3D3D3D" d="M642.705,95.284l-0.693-4.775h-0.223c-1.518,1.943-3.076,3.318-4.676,4.123
		c-1.602,0.805-3.494,1.207-5.678,1.207c-2.961,0-5.264-0.758-6.912-2.275c-1.646-1.518-2.469-3.619-2.469-6.303
		c0-2.941,1.225-5.227,3.678-6.855c2.451-1.629,6-2.488,10.645-2.582l5.746-0.166v-1.998c0-2.869-0.584-5.033-1.75-6.496
		c-1.164-1.461-3.043-2.193-5.635-2.193c-2.793,0-5.689,0.777-8.688,2.332l-1.027-2.387c3.312-1.555,6.588-2.332,9.826-2.332
		c3.312,0,5.789,0.861,7.426,2.582c1.639,1.721,2.457,4.404,2.457,8.049v20.07H642.705z M631.602,93.341
		c3.221,0,5.76-0.92,7.621-2.762c1.859-1.842,2.789-4.4,2.789-7.676v-2.971l-5.273,0.223c-4.238,0.205-7.26,0.865-9.064,1.984
		c-1.803,1.121-2.705,2.865-2.705,5.232c0,1.889,0.578,3.355,1.734,4.4S629.492,93.341,631.602,93.341z"/>
	<path fill="#3D3D3D" d="M675.543,95.284v-19.57c0-3.035-0.639-5.24-1.916-6.619c-1.275-1.379-3.256-2.068-5.939-2.068
		c-3.607,0-6.25,0.912-7.924,2.734c-1.676,1.822-2.514,4.779-2.514,8.869v16.654h-2.748V65.11h2.332l0.527,4.137h0.166
		c1.963-3.146,5.451-4.719,10.465-4.719c6.848,0,10.271,3.674,10.271,11.02v19.736H675.543z"/>
	<path fill="#3D3D3D" d="M700.221,95.839c-4.387,0-7.805-1.352-10.256-4.053c-2.453-2.701-3.68-6.486-3.68-11.354
		c0-4.811,1.186-8.664,3.555-11.561c2.367-2.896,5.561-4.344,9.576-4.344c3.553,0,6.355,1.24,8.41,3.719
		c2.055,2.48,3.082,5.848,3.082,10.104v2.221h-21.734c0.035,4.146,1.002,7.311,2.9,9.494c1.896,2.184,4.611,3.275,8.146,3.275
		c1.721,0,3.234-0.121,4.539-0.361s2.955-0.758,4.953-1.555v2.498c-1.701,0.74-3.275,1.246-4.719,1.514
		S701.959,95.839,700.221,95.839z M699.416,66.97c-2.906,0-5.238,0.959-6.996,2.873c-1.758,1.916-2.785,4.678-3.08,8.287h18.652
		c0-3.498-0.758-6.232-2.275-8.203S702.098,66.97,699.416,66.97z"/>
</g>
<g opacity="0.4">
	<g>
		<g>
			<line fill="none" stroke="#000000" stroke-width="4" stroke-miterlimit="10" x1="53.404" y1="80.336" x2="218.254" y2="80.336"/>
			<g>
				<path d="M29.264,80.336c11.359,4.215,25.453,11.406,34.189,19.023l-6.881-19.023l6.881-19.02
					C54.717,68.934,40.623,76.125,29.264,80.336z"/>
			</g>
		</g>
	</g>
	<g>
		<g>
			
				<line fill="none" stroke="#000000" stroke-width="4" stroke-miterlimit="10" x1="905.076" y1="80.336" x2="740.227" y2="80.336"/>
			<g>
				<path d="M929.217,80.336c-11.359-4.215-25.453-11.406-34.189-19.023l6.881,19.023l-6.881,19.02
					C903.764,91.738,917.857,84.547,929.217,80.336z"/>
			</g>
		</g>
	</g>
</g>
</svg>
