<?xml version="1.0" encoding="utf-8"?>
<!-- Generator: Adobe Illustrator 16.0.0, SVG Export Plug-In . SVG Version: 6.00 Build 0)  -->
<!DOCTYPE svg PUBLIC "-//W3C//DTD SVG 1.1//EN" "http://www.w3.org/Graphics/SVG/1.1/DTD/svg11.dtd">
<svg version="1.1" id="Layer_1" xmlns="http://www.w3.org/2000/svg" xmlns:xlink="http://www.w3.org/1999/xlink" x="0px" y="0px"
	 width="300px" height="300px" viewBox="0 0 300 300" enable-background="new 0 0 300 300" xml:space="preserve">
<g opacity="0.05">
	<path fill="#3F4C77" d="M229.55,79.075c0,17.129-4.803,31.136-14.405,42.022c-9.605,10.89-23.214,18.167-40.83,21.837v1.469
		c21.53,2.691,37.495,9.542,47.895,20.552c10.396,11.012,15.598,25.447,15.598,43.309c0,25.57-8.871,45.232-26.607,58.996
		c-17.74,13.764-42.94,20.645-75.604,20.645c-14.192,0-27.19-1.072-38.994-3.211c-11.808-2.141-23.276-5.902-34.407-11.287v-28.992
		c11.621,5.752,24.007,10.123,37.159,13.119c13.149,3,25.6,4.496,37.344,4.496c46.363,0,69.548-18.166,69.548-54.5
		c0-32.541-25.57-48.812-76.705-48.812h-26.425v-26.242h26.792c20.92,0,37.495-4.616,49.729-13.854
		c12.232-9.235,18.351-22.049,18.351-38.444c0-13.089-4.496-23.365-13.487-30.828c-8.992-7.461-21.195-11.194-36.609-11.194
		c-11.744,0-22.817,1.592-33.214,4.771c-10.399,3.183-22.268,9.055-35.601,17.616L63.661,39.988
		c11.011-8.685,23.701-15.506,38.077-20.461c14.374-4.954,29.513-7.432,45.417-7.432c26.058,0,46.304,5.964,60.74,17.892
		C222.33,41.915,229.55,58.278,229.55,79.075z"/>
</g>
</svg>
