<?xml version="1.0" encoding="utf-8"?>
<!-- Generator: Adobe Illustrator 16.0.0, SVG Export Plug-In . SVG Version: 6.00 Build 0)  -->
<!DOCTYPE svg PUBLIC "-//W3C//DTD SVG 1.1//EN" "http://www.w3.org/Graphics/SVG/1.1/DTD/svg11.dtd">
<svg version="1.1" id="Layer_1" xmlns="http://www.w3.org/2000/svg" xmlns:xlink="http://www.w3.org/1999/xlink" x="0px" y="0px"
	 width="230px" height="65px" viewBox="0 0 230 65" enable-background="new 0 0 230 65" xml:space="preserve">
<g opacity="0.5">
	<g>
		<line fill="none" stroke="#3F4C77" stroke-miterlimit="10" x1="19.814" y1="32.5" x2="53.814" y2="32.5"/>
		<g>
			<polygon fill="#3F4C77" points="21.814,37.486 13.18,32.5 21.814,27.514 			"/>
		</g>
	</g>
</g>
<g opacity="0.5">
	<g>
		<line fill="none" stroke="#FFFFFF" stroke-miterlimit="10" x1="209.814" y1="32.5" x2="175.814" y2="32.5"/>
		<g>
			<polygon fill="#FFFFFF" points="207.814,27.514 216.449,32.5 207.814,37.486 			"/>
		</g>
	</g>
</g>
<path opacity="0.5" fill="#3F4C77" d="M93.168,36.027c0,1.195-0.445,2.117-1.336,2.766s-2.141,0.973-3.75,0.973
	c-1.703,0-3.031-0.27-3.984-0.809v-1.805c0.617,0.312,1.279,0.559,1.986,0.738s1.389,0.27,2.045,0.27
	c1.016,0,1.797-0.162,2.344-0.486s0.82-0.818,0.82-1.482c0-0.5-0.217-0.928-0.65-1.283s-1.279-0.775-2.537-1.26
	c-1.195-0.445-2.045-0.834-2.549-1.166s-0.879-0.709-1.125-1.131s-0.369-0.926-0.369-1.512c0-1.047,0.426-1.873,1.277-2.479
	s2.02-0.908,3.504-0.908c1.383,0,2.734,0.281,4.055,0.844l-0.691,1.582c-1.289-0.531-2.457-0.797-3.504-0.797
	c-0.922,0-1.617,0.145-2.086,0.434s-0.703,0.688-0.703,1.195c0,0.344,0.088,0.637,0.264,0.879s0.459,0.473,0.85,0.691
	s1.141,0.535,2.25,0.949c1.523,0.555,2.553,1.113,3.088,1.676S93.168,35.176,93.168,36.027z"/>
<path opacity="0.5" fill="#3F4C77" d="M106.82,39.531l-2.355-7.535c-0.148-0.461-0.426-1.508-0.832-3.141h-0.094
	c-0.312,1.367-0.586,2.422-0.82,3.164l-2.426,7.512h-2.25l-3.504-12.844h2.039c0.828,3.227,1.459,5.684,1.893,7.371
	s0.682,2.824,0.744,3.41h0.094c0.086-0.445,0.225-1.021,0.416-1.729s0.357-1.268,0.498-1.682l2.355-7.371h2.109l2.297,7.371
	c0.438,1.344,0.734,2.473,0.891,3.387h0.094c0.031-0.281,0.115-0.715,0.252-1.301s0.951-3.738,2.443-9.457h2.016l-3.551,12.844
	H106.82z"/>
<rect x="115" y="26.688" opacity="0.5" fill="#F2F2F2" width="1.945" height="12.844"/>
<path opacity="0.5" fill="#F2F2F2" d="M115.984,21.918c-0.328,0-0.602,0.104-0.82,0.311s-0.328,0.533-0.328,0.979
	c0,0.438,0.109,0.764,0.328,0.979s0.492,0.322,0.82,0.322c0.312,0,0.582-0.107,0.809-0.322s0.34-0.541,0.34-0.979
	s-0.113-0.762-0.34-0.973S116.297,21.918,115.984,21.918z"/>
<path opacity="0.5" fill="#F2F2F2" d="M127.047,26.453c-0.859,0-1.621,0.156-2.285,0.469s-1.246,0.82-1.746,1.523h-0.094
	l-0.27-1.758h-1.582v18.609h1.945v-5.285c0-0.672-0.047-1.383-0.141-2.133h0.141c0.469,0.641,1.049,1.115,1.74,1.424
	s1.455,0.463,2.291,0.463c1.672,0,2.979-0.584,3.92-1.752s1.412-2.807,1.412-4.916c0-2.102-0.463-3.734-1.389-4.898
	S128.75,26.453,127.047,26.453z M129.42,36.789c-0.629,0.898-1.498,1.348-2.607,1.348c-1.328,0-2.293-0.389-2.895-1.166
	s-0.902-2.068-0.902-3.873v-0.434c0.016-1.586,0.316-2.742,0.902-3.469s1.535-1.09,2.848-1.09c1.141,0,2.025,0.428,2.654,1.283
	s0.943,2.084,0.943,3.686C130.363,34.652,130.049,35.891,129.42,36.789z"/>
<path opacity="0.5" fill="#F2F2F2" d="M140.699,26.453c-1.719,0-3.088,0.609-4.107,1.828s-1.529,2.863-1.529,4.934
	c0,2.055,0.549,3.66,1.646,4.816s2.596,1.734,4.494,1.734c0.867,0,1.607-0.064,2.221-0.193s1.264-0.342,1.951-0.639v-1.734
	c-1.352,0.578-2.719,0.867-4.102,0.867c-1.312,0-2.33-0.391-3.053-1.172s-1.104-1.926-1.143-3.434h8.848v-1.23
	c0-1.734-0.469-3.131-1.406-4.189S142.309,26.453,140.699,26.453z M137.125,31.879c0.109-1.188,0.471-2.117,1.084-2.789
	s1.436-1.008,2.467-1.008c1.016,0,1.797,0.326,2.344,0.979s0.82,1.592,0.82,2.818H137.125z"/>
</svg>
